<svg width="32" height="32" viewBox="0 0 32 32" fill="none" xmlns="http://www.w3.org/2000/svg">
<path d="M28.88 2H3.12C2.5005 2 2 2.5005 2 3.12V28.88C2 29.4995 2.5005 30 3.12 30H28.88C29.4995 30 30 29.4995 30 28.88V3.12C30 2.5005 29.4995 2 28.88 2ZM19.0275 10.3615H23.8715V11.541H19.0275V10.3615ZM16 20.088C15.7734 20.5181 15.4499 20.8895 15.055 21.173C14.642 21.46 14.1835 21.67 13.697 21.7925C13.188 21.9289 12.6629 21.996 12.136 21.992H6.34V10.0535H11.975C12.5455 10.0535 13.0635 10.106 13.536 10.204C14.005 10.302 14.404 10.47 14.74 10.6975C15.0725 10.925 15.335 11.2295 15.5205 11.6075C15.7025 11.982 15.797 12.451 15.797 13.0075C15.797 13.6095 15.6605 14.1065 15.3875 14.509C15.111 14.9115 14.712 15.237 14.1695 15.4925C14.908 15.7025 15.4505 16.077 15.8075 16.602C16.1715 17.134 16.35 17.771 16.35 18.52C16.35 19.129 16.2345 19.6505 16 20.088ZM25.758 18.24H19.514C19.514 18.919 19.7485 19.57 20.102 19.92C20.459 20.2665 20.97 20.4415 21.6385 20.4415C22.1215 20.4415 22.531 20.319 22.881 20.0775C23.2275 19.836 23.4375 19.5805 23.5145 19.3145H25.6075C25.2715 20.354 24.7605 21.096 24.0675 21.544C23.3815 21.992 22.5415 22.216 21.565 22.216C20.8825 22.216 20.27 22.104 19.7205 21.8905C19.192 21.684 18.716 21.369 18.324 20.963C17.9375 20.5461 17.6387 20.0557 17.4455 19.521C17.232 18.9295 17.127 18.3065 17.134 17.68C17.134 17.0325 17.2425 16.4305 17.4525 15.8705C17.855 14.782 18.6915 13.9105 19.759 13.459C20.3295 13.221 20.942 13.102 21.5615 13.109C22.2965 13.109 22.9335 13.249 23.4865 13.536C24.0189 13.8101 24.4811 14.2028 24.8375 14.684C25.191 15.1635 25.4395 15.7095 25.597 16.3255C25.7475 16.931 25.8 17.568 25.758 18.24ZM21.488 14.894C21.11 14.894 20.7915 14.9605 20.5465 15.09C20.3015 15.2195 20.0985 15.3805 19.9445 15.566C19.7978 15.7451 19.6894 15.9524 19.626 16.175C19.57 16.3605 19.5315 16.5495 19.5175 16.742H23.385C23.329 16.1365 23.119 15.6885 22.839 15.3735C22.545 15.062 22.0725 14.894 21.488 14.894ZM12.7905 14.5405C13.095 14.32 13.242 13.956 13.242 13.4555C13.2525 13.2175 13.2035 12.983 13.0985 12.7695C13.004 12.598 12.864 12.4545 12.6925 12.353C12.5147 12.2452 12.3172 12.1738 12.1115 12.143C11.8875 12.101 11.66 12.08 11.436 12.0835H8.9755V14.873H11.639C12.0975 14.8765 12.486 14.7645 12.7905 14.5405ZM13.2035 17.0605C12.8605 16.798 12.402 16.6685 11.8315 16.6685H8.9685V19.9585H11.7755C12.038 19.9585 12.2795 19.934 12.514 19.885C12.7485 19.836 12.9585 19.752 13.137 19.633C13.3155 19.5175 13.459 19.36 13.5675 19.157C13.6725 18.954 13.725 18.695 13.725 18.3835C13.725 17.764 13.55 17.3265 13.2035 17.0605Z" fill="#3E492E"/>
</svg>
