<svg width="32" height="32" viewBox="0 0 32 32" fill="none" xmlns="http://www.w3.org/2000/svg">
<path d="M15.9962 11.3313C13.4255 11.3313 11.3277 13.4293 11.3277 16C11.3277 18.5707 13.4255 20.6687 15.9962 20.6687C18.5669 20.6687 20.6648 18.5707 20.6648 16C20.6648 13.4293 18.5669 11.3313 15.9962 11.3313ZM29.9984 16C29.9984 14.0667 30.0159 12.1509 29.9074 10.2211C29.7988 7.97958 29.2875 5.99024 27.6484 4.35113C26.0058 2.70852 24.02 2.20068 21.7785 2.0921C19.8453 1.98353 17.9295 2.00104 15.9997 2.00104C14.0665 2.00104 12.1507 1.98353 10.2209 2.0921C7.97947 2.20068 5.99016 2.71202 4.35109 4.35113C2.70851 5.99374 2.20067 7.97958 2.0921 10.2211C1.98353 12.1544 2.00104 14.0702 2.00104 16C2.00104 17.9298 1.98353 19.8491 2.0921 21.7789C2.20067 24.0204 2.71201 26.0098 4.35109 27.6489C5.99367 29.2915 7.97947 29.7993 10.2209 29.9079C12.1542 30.0165 14.07 29.999 15.9997 29.999C17.933 29.999 19.8488 30.0165 21.7785 29.9079C24.02 29.7993 26.0093 29.288 27.6484 27.6489C29.291 26.0063 29.7988 24.0204 29.9074 21.7789C30.0195 19.8491 29.9984 17.9333 29.9984 16V16ZM15.9962 23.1834C12.0211 23.1834 8.81302 19.9752 8.81302 16C8.81302 12.0248 12.0211 8.81665 15.9962 8.81665C19.9713 8.81665 23.1795 12.0248 23.1795 16C23.1795 19.9752 19.9713 23.1834 15.9962 23.1834ZM23.4737 10.2001C22.5455 10.2001 21.796 9.45057 21.796 8.52245C21.796 7.59432 22.5455 6.84481 23.4737 6.84481C24.4018 6.84481 25.1513 7.59432 25.1513 8.52245C25.1515 8.74284 25.1083 8.96111 25.0241 9.16478C24.9399 9.36844 24.8163 9.55349 24.6605 9.70933C24.5047 9.86517 24.3196 9.98873 24.116 10.0729C23.9123 10.1572 23.694 10.2004 23.4737 10.2001V10.2001Z" fill="#3E492E"/>
</svg>
