<svg width="32" height="32" viewBox="0 0 32 32" fill="none" xmlns="http://www.w3.org/2000/svg">
<path d="M28.5944 1.71423H2.83436C2.21486 1.71423 1.71436 2.21473 1.71436 2.83423V28.5942C1.71436 29.2137 2.21486 29.7142 2.83436 29.7142H28.5944C29.2139 29.7142 29.7144 29.2137 29.7144 28.5942V2.83423C29.7144 2.21473 29.2139 1.71423 28.5944 1.71423ZM10.0199 25.5737H5.86536V12.2107H10.0199V25.5737ZM7.94436 10.3837C7.4681 10.3837 7.00254 10.2425 6.60654 9.97791C6.21055 9.71332 5.90191 9.33724 5.71965 8.89723C5.5374 8.45723 5.48971 7.97306 5.58262 7.50596C5.67554 7.03885 5.90488 6.60979 6.24164 6.27302C6.57841 5.93626 7.00747 5.70692 7.47458 5.614C7.94168 5.52109 8.42585 5.56878 8.86586 5.75103C9.30586 5.93329 9.68194 6.24193 9.94653 6.63792C10.2111 7.03391 10.3524 7.49948 10.3524 7.97573C10.3489 9.30573 9.27086 10.3837 7.94436 10.3837ZM25.5739 25.5737H21.4229V19.0742C21.4229 17.5237 21.3949 15.5322 19.2634 15.5322C17.1039 15.5322 16.7714 17.2192 16.7714 18.9622V25.5737H12.6239V12.2107H16.6069V14.0377H16.6629C17.2159 12.9877 18.5704 11.8782 20.5934 11.8782C24.8004 11.8782 25.5739 14.6467 25.5739 18.2447V25.5737Z" fill="#3E492E"/>
</svg>
