<svg width="32" height="32" viewBox="0 0 32 32" fill="none" xmlns="http://www.w3.org/2000/svg">
<path d="M29 4H3C2.44687 4 2 4.4875 2 5.09091V26.9091C2 27.5125 2.44687 28 3 28H29C29.5531 28 30 27.5125 30 26.9091V5.09091C30 4.4875 29.5531 4 29 4ZM26.475 7.7125L16.6156 16.0818C16.3719 16.2898 16.0313 16.2898 15.7875 16.0818L5.925 7.7125C5.88782 7.6812 5.86055 7.63799 5.84702 7.58894C5.83348 7.53988 5.83435 7.48743 5.84951 7.43894C5.86467 7.39045 5.89336 7.34836 5.93156 7.31855C5.96975 7.28874 6.01554 7.27272 6.0625 7.27273H26.3375C26.3845 7.27272 26.4302 7.28874 26.4684 7.31855C26.5066 7.34836 26.5353 7.39045 26.5505 7.43894C26.5656 7.48743 26.5665 7.53988 26.553 7.58894C26.5394 7.63799 26.5122 7.6812 26.475 7.7125V7.7125Z" fill="#3E492E"/>
</svg>
